<?xml version="1.0" encoding="utf-8"?>
<svg width="14" height="14" id="svg3800" version="1.1" viewBox="0 0 14 14" xmlns="http://www.w3.org/2000/svg">
  <g transform="matrix(0.986627, 0.987618, -1.063683, 1.062613, 0.880977, 2.614421)" id="g97" style="">
    <g id="g105">
      <path id="rental-bicycle" transform="translate(-1.5520395,-2.8104498)" d="M 2.744 0 C 2.034 0 1.374 0.412 1 1 L 2.907 1 L 3.53 2 L 2.907 3 L 1.002 3 C 1.376 3.588 2.035 3.999 2.744 4 C 3.502 4 4.156 3.596 4.512 3 L 9.178 3 C 9.533 3.596 10.189 4 10.947 4 C 12.081 4 13 3.105 13 2 C 13 0.895 12.081 0 10.947 0 C 10.189 0 9.533 0.404 9.178 1 L 4.512 1 C 4.156 0.404 3.502 0 2.744 0 Z M 10.322 1 L 11.572 1 L 12.195 2 L 11.572 3 L 10.322 3 L 9.699 2 L 10.322 1 Z" style="stroke-width:0.99790192"/>
    </g>
  </g>
</svg>