<?xml version="1.0" encoding="UTF-8" standalone="no"?>
<svg
   xmlns:dc="http://purl.org/dc/elements/1.1/"
   xmlns:cc="http://creativecommons.org/ns#"
   xmlns:rdf="http://www.w3.org/1999/02/22-rdf-syntax-ns#"
   xmlns:svg="http://www.w3.org/2000/svg"
   xmlns="http://www.w3.org/2000/svg"
   version="1.1"
   width="14"
   height="14"
   viewBox="0 0 14 14"
   id="svg2">
  <metadata
     id="metadata8">
    <rdf:RDF>
      <cc:Work
         rdf:about="">
        <dc:format>image/svg+xml</dc:format>
        <dc:type
           rdf:resource="http://purl.org/dc/dcmitype/StillImage" />
        <dc:title></dc:title>
      </cc:Work>
    </rdf:RDF>
  </metadata>
  <defs
     id="defs6" />
  <rect
     style="fill:none;stroke:none;visibility:hidden"
     id="canvas"
     y="0"
     x="0"
     height="14"
     width="14" />
  <path
     id="path4290-2"
     style="fill:#000000;fill-opacity:1;fill-rule:evenodd;stroke:none;stroke-opacity:1"
     d="M 5,2 3,5 2,5 4,2 Z m 4,0 2,3 1,0 -2,-3 z m -2.5,0 1,0 0,3 -1,0 z M 6,0 4,1 10,1 8,0 Z" />
  <g
     transform="translate(1.3585572,2.8288184)"
     id="g97">
    <g
       id="g105">
      <path
         id="rental-bicycle"
         transform="translate(-1.5520395,-2.8104498)"
         d="m 7.9824219,5.4511719 0.03125,0.9980469 0.9648437,0.5625 0,0.9980468 -3.7402344,0 -0.2480468,0 0,-0.9980468 0.4980468,0 c 0.9974025,0 0.9974024,-0.9980469 0,-0.9980469 l -1.9941406,0 c -0.9974025,0 -0.9974025,0.9980469 0,0.9980469 l 0.4980469,0 0,0.9980468 -0.5605469,1.3730469 c -0.041538,-0.00226 -0.082956,0 -0.125,0 C 2.0394441,9.3828125 1,10.422942 1,11.691406 1,12.959871 2.0394441,14 3.3066406,14 c 1.2671956,0 2.3066406,-1.040129 2.3066406,-2.308594 0,-0.239631 -0.05561,-0.46895 -0.125,-0.6875 l 0.4980469,0 0.9980469,0 2.1503906,-1.9960935 0.28125,0.71875 C 8.7780386,10.142801 8.3554687,10.88276 8.3554688,11.691406 8.3554688,12.959871 9.3949129,14 10.662109,14 11.929306,14 13,12.959871 13,11.691406 13,10.422942 11.929306,9.3828125 10.662109,9.3828125 c -0.04206,0 -0.08346,-0.00226 -0.125,0 l -0.5605465,-1.3730469 0,-1.3730468 z m -3.1484375,3.5566406 3.1035156,0 -1.3027344,1.2480465 -1.5507812,0 C 4.9305231,10.068437 4.755997,9.859178 4.5527344,9.7265625 Z M 3.3066406,10.505859 c 0.6607802,0 1.1835938,0.524106 1.1835938,1.185547 0,0.661442 -0.5228136,1.185547 -1.1835938,1.185547 -0.6607811,0 -1.1835937,-0.524105 -1.1835937,-1.185547 0,-0.661441 0.5228126,-1.185547 1.1835937,-1.185547 z m 7.3554684,0 c 0.66078,0 1.185547,0.524106 1.185547,1.185547 0,0.661442 -0.524767,1.185547 -1.185547,1.185547 -0.660781,0 -1.1523434,-0.524105 -1.1523434,-1.185547 0,-0.661441 0.4915624,-1.185547 1.1523434,-1.185547 z"
         style="stroke-width:0.99790192" />
    </g>
  </g>
</svg>
