<?xml version="1.0" encoding="utf-8"?>
<svg id="svg5" version="1.1" height="16px" width="16px" viewBox="0 0 1.7500002 1.75" xmlns="http://www.w3.org/2000/svg">
  <g transform="matrix(0.02916667,0,0,0.02916821,-0.05833334,-0.05842907)" id="outline">
    <path id="path2" d="M 46 30 L 38 30 L 38 27 C 38 26.448 37.552 26 37 26 L 35 26 L 35 16 L 36 16 C 36.586 16.002 37.049 15.501 37 14.917 L 36.249 5.906 C 35.974 2.638 32.265 0.893 29.572 2.765 C 28.53 3.49 27.865 4.641 27.759 5.906 L 27 14.917 C 26.951 15.501 27.414 16.002 28 16 L 29 16 L 29 26 L 27 26 C 26.448 26 26 26.448 26 27 L 26 30 L 18 30 C 5.683 30 -2.015 43.333 4.144 54 C 7.002 58.95 12.284 62 18 62 L 46 62 C 58.317 62 66.015 48.667 59.856 38 C 56.998 33.05 51.716 30 46 30 Z M 36 48 L 18 48 C 16.46 48 15.498 46.333 16.268 45 C 16.625 44.381 17.285 44 18 44 L 36 44 L 36 48 Z M 36 38 L 18 38 C 11.842 38 7.993 44.667 11.072 50 C 12.501 52.475 15.142 54 18 54 L 36 54 L 36 56 L 18 56 C 10.302 56 5.491 47.667 9.34 41 C 11.126 37.906 14.427 36 18 36 L 36 36 L 36 38 Z M 42 44 L 46 44 C 47.54 44 48.502 45.667 47.732 47 C 47.375 47.619 46.715 48 46 48 L 42 48 L 42 44 Z M 42 54 L 46 54 C 52.158 54 56.007 47.333 52.928 42 C 51.499 39.525 48.858 38 46 38 L 42 38 L 42 36 L 46 36 C 53.698 36 58.509 44.333 54.66 51 C 52.874 54.094 49.573 56 46 56 L 42 56 L 42 54 Z"/>
  </g>
</svg>