<?xml version="1.0" encoding="UTF-8" standalone="no"?>
<svg
   xmlns:dc="http://purl.org/dc/elements/1.1/"
   xmlns:cc="http://creativecommons.org/ns#"
   xmlns:rdf="http://www.w3.org/1999/02/22-rdf-syntax-ns#"
   xmlns:svg="http://www.w3.org/2000/svg"
   xmlns="http://www.w3.org/2000/svg"
   id="svg5"
   version="1.1"
   height="14"
   width="14.000002"
   viewBox="0 0 1.7500002 1.75">
  <metadata
     id="metadata11">
    <rdf:RDF>
      <cc:Work
         rdf:about="">
        <dc:format>image/svg+xml</dc:format>
        <dc:type
           rdf:resource="http://purl.org/dc/dcmitype/StillImage" />
        <dc:title></dc:title>
      </cc:Work>
    </rdf:RDF>
  </metadata>
  <defs
     id="defs9" />
  <g
     transform="matrix(0.02916667,0,0,0.02916821,-0.05833334,-0.05842907)"
     id="outline">
    <path
       id="path2"
       d="M 46,30 H 38 V 27 A 1,1 0 0 0 37,26 H 35 V 16 h 1 a 1,1 0 0 0 1,-1.083 L 36.249,5.906 a 4.26,4.26 0 0 0 -8.49,0 L 27,14.917 A 1,1 0 0 0 28,16 h 1 v 10 h -2 a 1,1 0 0 0 -1,1 v 3 h -8 a 16,16 0 0 0 0,32 H 46 A 16,16 0 0 0 46,30 Z M 29.747,6.072 a 2.261,2.261 0 0 1 4.506,0 L 34.58,10 H 31 v 2 h 3.747 l 0.166,2 H 29.087 Z M 31,22 v -2 h 2 v 2 z m 2,2 v 2 h -2 v -2 z m -2,-6 v -2 h 2 v 2 z m 5,30 H 18 a 2,2 0 0 1 0,-4 h 18 z m 0,-6 H 18 a 4,4 0 0 0 0,8 h 18 v 2 H 18 a 6,6 0 0 1 0,-12 h 18 z m 0,-4 H 18 a 8,8 0 0 0 0,16 h 18 v 2 H 18 a 10,10 0 0 1 0,-20 h 18 z m 0,-4 H 18 a 12,12 0 0 0 0,24 h 18 v 2 H 18 a 14,14 0 0 1 0,-28 h 18 z m 0,-4 h -8 v -2 h 8 z m 4,30 H 38 V 32 h 2 z m 2,-16 h 4 a 2,2 0 0 1 0,4 h -4 z m 0,6 h 4 a 4,4 0 0 0 0,-8 h -4 v -2 h 4 a 6,6 0 0 1 0,12 h -4 z m 0,4 h 4 a 8,8 0 0 0 0,-16 h -4 v -2 h 4 a 10,10 0 0 1 0,20 h -4 z m 4,6 h -4 v -2 h 4 a 12,12 0 0 0 0,-24 h -4 v -2 h 4 a 14,14 0 0 1 0,28 z" />
  </g>
</svg>
