<?xml version="1.0" encoding="UTF-8" standalone="no"?>
<svg
   xmlns:dc="http://purl.org/dc/elements/1.1/"
   xmlns:cc="http://creativecommons.org/ns#"
   xmlns:rdf="http://www.w3.org/1999/02/22-rdf-syntax-ns#"
   xmlns:svg="http://www.w3.org/2000/svg"
   xmlns="http://www.w3.org/2000/svg"
   viewBox="0 0 14 14"
   height="14"
   width="14"
   version="1.1"
   id="svg4190">
  <metadata
     id="metadata4196">
    <rdf:RDF>
      <cc:Work
         rdf:about="">
        <dc:format>image/svg+xml</dc:format>
        <dc:type
           rdf:resource="http://purl.org/dc/dcmitype/StillImage" />
        <dc:title></dc:title>
      </cc:Work>
    </rdf:RDF>
  </metadata>
  <defs
     id="defs4194" />
  <g
     transform="translate(-65.295729,65.705106)"
     id="g4238">
    <g
       transform="matrix(1.2644299,0,0,1.2644299,-19.518765,15.067675)"
       id="g4879">
      <rect
         y="-61.402237"
         x="67.368202"
         height="6.115078"
         width="10.490301"
         id="rect4200"
         style="fill:none;fill-opacity:1;stroke:#000000;stroke-width:0.25;stroke-miterlimit:4;stroke-dasharray:none;stroke-opacity:1" />
      <path
         id="path4204"
         d="m 67.430486,-61.325481 2.379508,0.844342 5.091634,0.07676 2.865643,-0.946688"
         style="fill:none;fill-rule:evenodd;stroke:#000000;stroke-width:0.25;stroke-linecap:butt;stroke-linejoin:miter;stroke-miterlimit:4;stroke-dasharray:none;stroke-opacity:1" />
      <path
         style="fill:none;fill-rule:evenodd;stroke:#000000;stroke-width:0.25;stroke-linecap:butt;stroke-linejoin:miter;stroke-miterlimit:4;stroke-dasharray:none;stroke-opacity:1"
         d="m 77.76468,-55.3326 -2.379508,-0.844342 -5.091634,-0.07676 -2.865643,0.946688"
         id="path4206" />
      <g
         transform="translate(-0.00472965,-96.15636)"
         id="g4222">
        <path
           transform="matrix(-0.08604922,-0.40722375,0.47864888,-0.07320875,67.728991,67.272597)"
           d="m 62.455668,32.397357 2.586403,-3.054012 2.586402,-3.054012 1.351651,3.766896 1.351651,3.766897 -3.938054,-0.712885 z"
           id="path4218"
           style="fill:none;fill-opacity:1;stroke:#000000;stroke-width:0.5;stroke-miterlimit:4;stroke-dasharray:none;stroke-opacity:1" />
        <path
           style="fill:#000000;fill-opacity:1;stroke:none;stroke-width:0.5;stroke-miterlimit:4;stroke-dasharray:none;stroke-opacity:1"
           id="path4220"
           d="m 62.455668,32.397357 2.586403,-3.054012 2.586402,-3.054012 1.351651,3.766896 1.351651,3.766897 -3.938054,-0.712885 z"
           transform="matrix(-0.04829203,-0.22853968,0.26862447,-0.04108577,72.230602,54.345552)" />
      </g>
      <g
         transform="matrix(-1,0,0,-1,145.23144,-20.533035)"
         id="g4232">
        <path
           style="fill:none;fill-opacity:1;stroke:#000000;stroke-width:0.5;stroke-miterlimit:4;stroke-dasharray:none;stroke-opacity:1"
           id="path4234"
           d="m 62.455668,32.397357 2.586403,-3.054012 2.586402,-3.054012 1.351651,3.766896 1.351651,3.766897 -3.938054,-0.712885 z"
           transform="matrix(-0.08604922,-0.40722375,0.47864888,-0.07320875,67.728991,67.272597)" />
        <path
           transform="matrix(-0.04829203,-0.22853968,0.26862447,-0.04108577,72.230602,54.345552)"
           d="m 62.455668,32.397357 2.586403,-3.054012 2.586402,-3.054012 1.351651,3.766896 1.351651,3.766897 -3.938054,-0.712885 z"
           id="path4236"
           style="fill:#000000;fill-opacity:1;stroke:none;stroke-width:0.5;stroke-miterlimit:4;stroke-dasharray:none;stroke-opacity:1" />
      </g>
    </g>
  </g>
</svg>
