<?xml version="1.0" encoding="iso-8859-1"?>
<!-- Generator: Adobe Illustrator 19.0.0, SVG Export Plug-In . SVG Version: 6.00 Build 0)  -->
<svg version="1.1" id="Capa_1" xmlns="http://www.w3.org/2000/svg" xmlns:xlink="http://www.w3.org/1999/xlink" x="0px" y="0px"
	 viewBox="0 0 512 512" style="enable-background:new 0 0 512 512;" xml:space="preserve">
<g>
	<g>
		<path d="M510.494,291.756l-4.339,0.76c-1.968-11.234-5.894-21.802-11.414-31.338l3.815-2.207
			c-5.868-10.141-13.399-19.117-22.383-26.678l-2.843,3.377c-8.483-7.14-18.21-12.846-28.812-16.729l1.514-4.134
			c-10.996-4.026-22.548-6.074-34.333-6.086l-0.005,4.404c-0.034,0-0.068-0.001-0.102-0.001c-8.392,0-16.534,1.086-24.298,3.118
			l-36.684-83.779h39.057v-30h-62l-13.74,21.017l10.855,24.791l-110.219,40.688l-9.98-26.83H220v-30h-57.787l-12.939-12.939
			l-21.213,21.213l21.727,21.727h22.789l15.126,40.662l-26.827,26.233c-7.998-6.055-16.793-10.858-26.221-14.288l-1.506,4.139
			c-10.222-3.719-21.248-5.751-32.739-5.751c-0.034,0-0.068,0.001-0.103,0.001l-0.005-4.404c-11.785,0.012-23.337,2.06-34.333,6.086
			l1.514,4.135c-10.601,3.883-20.329,9.589-28.811,16.729l-2.843-3.378c-8.983,7.561-16.515,16.537-22.383,26.678l3.816,2.208
			c-5.521,9.536-9.446,20.103-11.414,31.337l-4.34-0.761C0.507,297.455,0,303.301,0,309.132c0.001,5.859,0.514,11.735,1.523,17.462
			l4.338-0.764c1.978,11.23,5.915,21.792,11.443,31.322l-3.813,2.211c5.877,10.134,13.414,19.103,22.403,26.656l2.839-3.379
			c8.491,7.135,18.228,12.834,28.837,16.707l-1.51,4.137c11.003,4.016,22.56,6.052,34.348,6.052h0.184v-4.405
			c11.532-0.021,22.593-2.085,32.84-5.85l1.518,4.133c10.992-4.038,21.126-9.932,30.12-17.518l-2.846-3.374
			c8.52-7.187,15.779-15.823,21.385-25.531l3.814,2.202c4.934-8.546,8.528-17.69,10.753-27.238l39.302,3.127l27.497-10.599
			l-4.089-10.991l81.455-125.119l15.698,35.851c-3.782,2.394-7.416,5.042-10.879,7.945l2.835,3.382
			c-8.54,7.162-15.822,15.777-21.456,25.466l-3.811-2.215c-5.915,10.174-9.953,21.195-12.003,32.755l4.335,0.769
			c-0.967,5.458-1.474,11.072-1.474,16.804c0,5.629,0.492,11.144,1.425,16.51l-4.34,0.756c2.014,11.57,6.02,22.605,11.904,32.798
			l3.815-2.202c5.606,9.708,12.866,18.344,21.385,25.531l-2.846,3.374c8.994,7.586,19.128,13.48,30.12,17.518l1.519-4.133
			c10.247,3.766,21.308,5.829,32.84,5.85v4.405h0.183c11.788,0,23.345-2.036,34.348-6.052l-1.51-4.137
			c10.609-3.874,20.346-9.571,28.837-16.707l2.839,3.378c8.989-7.553,16.526-16.521,22.403-26.656l-3.812-2.211
			c5.529-9.53,9.465-20.092,11.443-31.322l4.339,0.764c1.009-5.727,1.521-11.603,1.522-17.465
			C512,303.301,511.493,297.456,510.494,291.756z M100.408,375.134c-36.396,0-66.005-29.61-66.005-66.005
			s29.609-66.005,66.005-66.005c13.039,0,25.196,3.816,35.444,10.367l-45.931,44.913l9.298,25.677l64.071,5.098
			C154.782,355.8,129.815,375.134,100.408,375.134z M134.48,296.791l22.362-21.866c4.447,7.31,7.51,15.548,8.833,24.348
			L134.48,296.791z M196.128,301.696c-0.244-3.169-0.643-6.295-1.189-9.372l4.334-0.769c-2.05-11.56-6.088-22.581-12.003-32.755
			l-3.81,2.215c-1.486-2.555-3.082-5.037-4.79-7.436l20.476-20.022l26.211,70.465L196.128,301.696z M247.871,278.5l-22.848-61.424
			l82.714-30.535L247.871,278.5z M411.593,375.134c-36.396,0-66.005-29.61-66.005-66.005c0-21.589,10.419-40.789,26.493-52.84
			l31.788,72.596l27.48-12.033l-31.793-72.609c3.906-0.723,7.925-1.119,12.037-1.119c36.396,0,66.005,29.61,66.005,66.005
			S447.989,375.134,411.593,375.134z"/>
	</g>
</g>
</svg>
