<?xml version="1.0" encoding="UTF-8" standalone="no"?>
<!-- Created with Inkscape (http://www.inkscape.org/) -->

<svg
   xmlns:dc="http://purl.org/dc/elements/1.1/"
   xmlns:cc="http://creativecommons.org/ns#"
   xmlns:rdf="http://www.w3.org/1999/02/22-rdf-syntax-ns#"
   xmlns:svg="http://www.w3.org/2000/svg"
   xmlns="http://www.w3.org/2000/svg"
   xmlns:sodipodi="http://sodipodi.sourceforge.net/DTD/sodipodi-0.dtd"
   xmlns:inkscape="http://www.inkscape.org/namespaces/inkscape"
   id="svg8761"
   sodipodi:docname="motorcycle.svg"
   viewBox="0 0 366.76698 187.13351"
   version="1.1"
   inkscape:version="0.92.4 5da689c313, 2019-01-14"
   width="366.76697"
   height="187.13351">
  <defs
     id="defs91" />
  <sodipodi:namedview
     id="base"
     bordercolor="#666666"
     inkscape:pageshadow="2"
     inkscape:window-y="37"
     fit-margin-left="0"
     pagecolor="#ffffff"
     inkscape:window-height="861"
     inkscape:window-maximized="0"
     inkscape:zoom="0.7"
     inkscape:window-x="0"
     showgrid="false"
     borderopacity="1.0"
     inkscape:current-layer="layer1"
     inkscape:cx="-51.361474"
     inkscape:cy="-47.579576"
     fit-margin-top="0"
     fit-margin-right="0"
     fit-margin-bottom="0"
     inkscape:window-width="1596"
     inkscape:pageopacity="0.0"
     inkscape:document-units="px" />
  <g
     id="layer1"
     inkscape:label="Calque 1"
     inkscape:groupmode="layer"
     transform="translate(-167.30293,-295.97213)">
    <g
       id="g11649">
      <circle
         id="path11300"
         style="fill:#ffffff"
         transform="translate(759.29,86.071)"
         cx="-405"
         cy="303.43362"
         r="8.5714283" />
      <circle
         id="path11302"
         style="fill:#ffffff"
         transform="translate(759.29,86.071)"
         cx="-405"
         cy="303.43362"
         r="8.5714283" />
      <g
         id="g11285"
         transform="matrix(1.8203,0,0,1.8203,1028.7,-440.73)">
        <path
           id="path10753"
           d="m -302.69,426.28 c -7.1429,0 -58.929,1.7857 -58.929,1.7857 0,0 -4.2857,-5.7143 -10.714,-6.4286 -6.4286,-0.71429 -24.434,-2.5396 -26.934,-2.5396 -2.5,0 -8.7806,0.0396 -10.566,0.0396 -1.7857,0 -3.9682,-4.1991 -10.945,-4.1991 -5.7143,0 -8.171,5.7935 -8.171,10.436 0,4.6428 6.0498,9.2334 8.7284,9.2334 2.6786,0 10.142,5.2508 14.423,11.14 4.2804,5.8893 7.1592,5.8893 11.322,5.8893 3.153,0 4.5166,0.24881 4.6428,3.9286 0.13052,3.8038 -1.0102,5 -2.4387,5 -1.4286,0 -2.5613,3.9286 -2.5613,7.8571 0,3.9286 3.9286,13.929 10.714,13.929 6.7857,0 45.536,-0.17857 45.536,-0.17857 0,0 -0.89286,-23.393 13.393,-30.357 14.212,-6.9286 20.311,-4.9885 23.929,-5.8929 1.4286,-0.35713 -1.4286,-19.643 -1.4286,-19.643 z"
           sodipodi:nodetypes="ccsssssssssssscssc"
           style="fill:#000000"
           inkscape:connector-curvature="0" />
        <circle
           id="path10755"
           style="fill:#000000"
           transform="matrix(1.1346,0,0,1.1346,249.28,-74.213)"
           cx="-608.92859"
           cy="484.86218"
           r="27.857143" />
        <circle
           id="path10757"
           style="fill:#ffffff"
           transform="matrix(0.73077,0,0,0.73077,3.3685,121.6)"
           cx="-608.92859"
           cy="484.86218"
           r="27.857143" />
        <circle
           id="path10759"
           style="fill:#000000"
           transform="matrix(0.41026,0,0,0.41026,-191.8,277)"
           cx="-608.92859"
           cy="484.86218"
           r="27.857143" />
        <path
           id="path11269"
           d="m -439.65,475.74 c 0,0 27.857,-40.536 29.821,-43.929"
           sodipodi:nodetypes="cc"
           style="fill:none;stroke:#000000;stroke-width:10;stroke-linecap:round"
           inkscape:connector-curvature="0" />
        <path
           id="path11271"
           d="m -403.58,421.99 c 0,-6.6071 0.35714,-11.429 17.857,-14.821"
           style="fill:none;stroke:#000000;stroke-width:5"
           inkscape:connector-curvature="0" />
        <circle
           id="path11273"
           style="fill:#000000"
           transform="matrix(1.1346,0,0,1.1346,384.01,-74.213)"
           cx="-608.92859"
           cy="484.86218"
           r="27.857143" />
        <circle
           id="path11275"
           style="fill:#ffffff"
           transform="matrix(0.73077,0,0,0.73077,138.09,121.6)"
           cx="-608.92859"
           cy="484.86218"
           r="27.857143" />
        <circle
           id="path11277"
           style="fill:#000000"
           transform="matrix(0.41026,0,0,0.41026,-57.078,277)"
           cx="-608.92859"
           cy="484.86218"
           r="27.857143" />
        <path
           id="path11279"
           d="m -271.73,477.73 h -71.468"
           style="fill:none;stroke:#000000;stroke-width:8"
           inkscape:connector-curvature="0" />
        <path
           id="path11283"
           d="m -306.18,477.62 -16.189,-37.017"
           style="fill:none;stroke:#000000;stroke-width:5"
           inkscape:connector-curvature="0" />
      </g>
    </g>
  </g>
  <metadata
     id="metadata88">
    <rdf:RDF>
      <cc:Work>
        <dc:format>image/svg+xml</dc:format>
        <dc:type
           rdf:resource="http://purl.org/dc/dcmitype/StillImage" />
        <cc:license
           rdf:resource="http://creativecommons.org/publicdomain/zero/1.0/" />
        <dc:publisher>
          <cc:Agent
             rdf:about="http://openclipart.org/">
            <dc:title>Openclipart</dc:title>
          </cc:Agent>
        </dc:publisher>
        <dc:title>B9h</dc:title>
        <dc:date>2012-11-25T03:43:43</dc:date>
        <dc:description>Road, Sign, France</dc:description>
        <dc:source>https://openclipart.org/detail/173308/b9h-by-desmoric-173308</dc:source>
        <dc:creator>
          <cc:Agent>
            <dc:title>Desmoric</dc:title>
          </cc:Agent>
        </dc:creator>
        <dc:subject>
          <rdf:Bag>
            <rdf:li>France</rdf:li>
            <rdf:li>Road</rdf:li>
            <rdf:li>Sign</rdf:li>
          </rdf:Bag>
        </dc:subject>
      </cc:Work>
      <cc:License
         rdf:about="http://creativecommons.org/publicdomain/zero/1.0/">
        <cc:permits
           rdf:resource="http://creativecommons.org/ns#Reproduction" />
        <cc:permits
           rdf:resource="http://creativecommons.org/ns#Distribution" />
        <cc:permits
           rdf:resource="http://creativecommons.org/ns#DerivativeWorks" />
      </cc:License>
    </rdf:RDF>
  </metadata>
</svg>
