<?xml version="1.0" standalone="no"?>
<!DOCTYPE svg PUBLIC "-//W3C//DTD SVG 20010904//EN"
 "http://www.w3.org/TR/2001/REC-SVG-20010904/DTD/svg10.dtd">
<svg version="1.0" xmlns="http://www.w3.org/2000/svg"
 width="1280.000000pt" height="1063.000000pt" viewBox="0 0 1280.000000 1063.000000"
 preserveAspectRatio="xMidYMid meet">
<metadata>
Created by potrace 1.15, written by Peter Selinger 2001-2017
</metadata>
<g transform="translate(0.000000,1063.000000) scale(0.100000,-0.100000)"
fill="#000000" stroke="none">
<path d="M9330 9465 l0 -1165 -1170 0 -1170 0 0 -1170 0 -1170 -1170 0 -1170
0 0 -1195 0 -1195 -1160 0 -1160 0 0 -1185 0 -1185 -1165 0 -1165 0 0 -600 0
-600 1740 0 1740 0 0 1190 0 1190 1170 0 1170 0 0 1180 0 1180 1165 -2 1165
-3 0 1183 0 1182 1170 0 1170 0 0 1170 0 1170 1155 0 1155 0 0 595 0 595
-1735 0 -1735 0 0 -1165z"/>
</g>
</svg>
