<?xml version="1.0" encoding="UTF-8" standalone="no"?>
<!-- Generator: Adobe Illustrator 13.0.0, SVG Export Plug-In  -->
<svg xmlns:dc="http://purl.org/dc/elements/1.1/" xmlns:cc="http://creativecommons.org/ns#" xmlns:rdf="http://www.w3.org/1999/02/22-rdf-syntax-ns#" xmlns:svg="http://www.w3.org/2000/svg" xmlns="http://www.w3.org/2000/svg" xmlns:sodipodi="http://sodipodi.sourceforge.net/DTD/sodipodi-0.dtd" xmlns:inkscape="http://www.inkscape.org/namespaces/inkscape" version="1.1" x="0px" y="0px" width="197.60001" height="174.05" viewBox="-0.781 -0.08 197.60001 174.05" enable-background="new -0.781 -0.08 576 506" xml:space="preserve" id="svg2" inkscape:version="0.48.4 r9939" sodipodi:docname="AB1_French_road_sign.svg"><metadata id="metadata18"><rdf:RDF><cc:Work rdf:about=""><dc:format>image/svg+xml</dc:format><dc:type rdf:resource="http://purl.org/dc/dcmitype/StillImage"/><dc:title/></cc:Work></rdf:RDF></metadata><sodipodi:namedview pagecolor="#ffffff" bordercolor="#666666" borderopacity="1" objecttolerance="10" gridtolerance="10" guidetolerance="10" inkscape:pageopacity="0" inkscape:pageshadow="2" inkscape:window-width="1366" inkscape:window-height="745" id="namedview16" showgrid="false" fit-margin-top="0.3" fit-margin-left="0.3" fit-margin-right="0.3" fit-margin-bottom="0.3" inkscape:zoom="2" inkscape:cx="126.42235" inkscape:cy="96.551539" inkscape:window-x="-8" inkscape:window-y="-8" inkscape:window-maximized="1" inkscape:current-layer="g3883" showguides="true" inkscape:guide-bbox="true" inkscape:snap-bbox="true" inkscape:bbox-paths="true" inkscape:bbox-nodes="true" inkscape:snap-bbox-edge-midpoints="true" inkscape:snap-bbox-midpoints="true" inkscape:object-paths="true" inkscape:snap-intersection-paths="true" inkscape:object-nodes="true" inkscape:snap-midpoints="true" inkscape:snap-smooth-nodes="true" inkscape:snap-object-midpoints="true" inkscape:snap-center="true" inkscape:snap-page="true"/>
<defs id="defs4">
</defs>





<g transform="matrix(-0.45161367,0,0,0.45161367,138.99647,15.446347)" style="fill:#ffff00" id="g3883"><g id="g3853"><g transform="matrix(-0.37971035,-0.65767758,-0.65767758,0.37971035,415.56424,166.85418)" id="g2985"><path inkscape:connector-curvature="0" d="M 4.663749,460.12175 260.66975,16.707755 c 5.531,-9.58 15.753,-15.482 26.815,-15.482 11.063,0 21.284,5.902 26.815,15.482 L 570.30474,460.12175 c 5.531,9.58 5.531,21.383 0,30.964 -5.531,9.579 -15.753,15.481 -26.815,15.481 H 31.479749 c -11.062,0 -21.284,-5.902 -26.815,-15.481 -5.53100003,-9.581 -5.53200003,-21.384 -10e-4,-30.964 z" id="path6" style="fill:#ffffff;stroke:#000000;stroke-width:2;stroke-linecap:round;stroke-linejoin:round;stroke-miterlimit:4;stroke-opacity:1;stroke-dasharray:none"/><path style="fill:#f91a0e;fill-opacity:1;stroke:none" inkscape:connector-curvature="0" d="M 559.62374,466.39275 303.52875,22.822755 c -3.31,-5.732 -9.425,-9.263 -16.044,-9.263 -6.619,0 -12.734,3.531 -16.044,9.263 L 15.344749,466.39275 c -3.31,5.732 -3.309,12.794 0,18.526 3.31,5.731 9.425,9.263 16.044,9.263 H 543.57974 c 6.619,0 12.734,-3.531 16.044,-9.263 3.31,-5.732 3.31,-12.794 0,-18.526 z" id="path8"/><polygon style="fill:#ffffff;stroke:none" transform="translate(0.42774897,1.137755)" points="287.057,68.208 510.884,455.888 63.23,455.888 " id="polygon10"/></g><g id="g3875" transform="translate(3.1050177,14.760547)"><g style="stroke-width:1.1071409;stroke-miterlimit:4;stroke-dasharray:none" transform="translate(-0.51603293,0.51603244)" id="g3863"><path sodipodi:type="arc" style="fill:#ffff00;fill-opacity:1;fill-rule:nonzero;stroke:#000000;stroke-width:0.51754761;stroke-miterlimit:4;stroke-opacity:1;stroke-dasharray:none" id="path3825" sodipodi:cx="75.407013" sodipodi:cy="61.625763" sodipodi:rx="15.407015" sodipodi:ry="15.407015" d="m 90.814028,61.625763 c 0,8.509059 -6.897956,15.407015 -15.407015,15.407015 -8.509059,0 -15.407015,-6.897956 -15.407015,-15.407015 0,-8.509059 6.897956,-15.407015 15.407015,-15.407015 8.509059,0 15.407015,6.897956 15.407015,15.407015 z" transform="matrix(-2.1560868,0,0,2.1224576,308.89797,-53.627468)"/><path sodipodi:type="arc" style="fill:#ffff00;fill-opacity:1;fill-rule:nonzero;stroke:#000000;stroke-width:0.51754761;stroke-miterlimit:4;stroke-opacity:1;stroke-dasharray:none" id="path3825-7" sodipodi:cx="75.407013" sodipodi:cy="61.625763" sodipodi:rx="15.407015" sodipodi:ry="15.407015" d="m 90.814028,61.625763 c 0,8.509059 -6.897956,15.407015 -15.407015,15.407015 -8.509059,0 -15.407015,-6.897956 -15.407015,-15.407015 0,-8.509059 6.897956,-15.407015 15.407015,-15.407015 8.509059,0 15.407015,6.897956 15.407015,15.407015 z" transform="matrix(-2.1560868,0,0,2.1224576,196.87253,-53.627468)"/></g><path sodipodi:nodetypes="ccccccccccccccccccccccccccccccccccccccc" inkscape:connector-curvature="0" id="path3867" d="M 126.54073,51.038041 115.78372,36.96002 101.10497,73.656908 c 1.41276,1.23868 3.07949,1.84246 3.37611,5.871503 l 8.36689,0 0,4.256837 -9.24762,0 c -0.95994,5.926156 -4.145763,6.388776 -7.19259,7.192586 l 0,6.458659 c 1.629997,-0.0448 2.840367,-0.64909 4.99078,0 1.85952,1.75862 1.45735,2.985077 0,3.963257 -2.391883,0.56143 -4.357423,0.41228 -6.16508,0 l 0,-10.715486 C 88.80595,91.566763 83.60759,85.804735 85.10513,76.592661 L 53.545793,42.097587 50.785843,49.594482 C 49.17727,48.641729 47.61258,47.90839 46.073085,47.30103 l 8.940598,-24.72618 -7.33939,-3.37612 c -5.0591,-4.78767 -2.49935,-7.67064 0,-10.5687004 1.56705,-1.87905 2.97589,-2.52015 4.94737,-3.18595 0.95086,-0.49339 2.26267,-0.52977 3.47182,-0.77731 l 10.956779,0 c 3.934378,2.36681 1.265568,4.96865 0,5.13756 l -11.743009,0 c -8.01612,3.0877504 -5.74269,5.3523304 0,7.3393804 1.92576,1.05792 6.339179,1.8897 5.535269,3.19578 0.009,0.99906 -1.325379,4.94886 -1.990509,7.42864 l 52.674867,0 1.77609,-6.62845 c 1.35249,-2.01665 -3.74124,-3.47275 -8.57604,-4.95137 -3.7702,-0.77316 -4.04156,-3.13251 0,-3.59502 l 23.09337,0 c 4.08051,0.86929 1.94142,6.19282 0,5.8715 l -4.09377,0.46708 c -2.25242,0.14145 -2.88685,0.97866 -4.67049,4.04772 -2.02538,2.89909 -2.81804,6.57775 0.10378,10.16396 l 10.67877,15.856443 c -1.26973,0.679349 -2.30124,1.358698 -3.29786,2.038048 z" style="fill:#ffff00;stroke:#000000;stroke-width:1.1071409;stroke-linecap:butt;stroke-linejoin:miter;stroke-miterlimit:4;stroke-opacity:1;stroke-dasharray:none"/><path inkscape:connector-curvature="0" id="path3869" d="m 111.58361,31.953029 -54.31139,0 -1.26279,4.71282 32.96889,35.066604 9.24763,0 z" style="fill:#ffffff;fill-opacity:1;stroke:#000000;stroke-width:1.1071409;stroke-linecap:butt;stroke-linejoin:miter;stroke-miterlimit:4;stroke-opacity:1;stroke-dasharray:none"/><path sodipodi:nodetypes="ccccccccc" inkscape:connector-curvature="0" id="path3871" d="m 95.439008,71.305367 c -0.535809,-1.782003 -0.939768,-3.620514 -0.518973,-5.81249 0.518972,-0.335477 1.349328,0.197662 1.8683,-1.037945 0.30857,-0.942609 0.88035,-2.271828 -0.311383,-3.840395 -1.648949,-0.746908 -5.936547,-0.731217 -8.407362,1.141739 -1.729564,1.245534 -1.798505,2.491067 0.207478,3.736601 1.739013,-0.698103 3.102102,-0.785331 3.736612,0.311383 2.18947,3.63605 1.060349,3.953508 1.588455,5.928193 z" style="fill:#ffff00;fill-opacity:1;stroke:#000000;stroke-width:1.1071409;stroke-linecap:butt;stroke-linejoin:miter;stroke-miterlimit:4;stroke-opacity:1;stroke-dasharray:none"/></g><path style="fill:#ffff00;stroke:#000000;stroke-width:1.1071409;stroke-linecap:butt;stroke-linejoin:miter;stroke-miterlimit:4;stroke-opacity:1;stroke-dasharray:none" d="m 84.900934,173.09758 0,-18.06024 -29.477627,29.47763 29.581411,29.58141 0,-18.5792 41.206412,0 0,-23.04237 z" id="path3873" inkscape:connector-curvature="0"/></g></g></svg>