<?xml version="1.0" encoding="UTF-8" standalone="no"?>
<svg
   xmlns:dc="http://purl.org/dc/elements/1.1/"
   xmlns:cc="http://creativecommons.org/ns#"
   xmlns:rdf="http://www.w3.org/1999/02/22-rdf-syntax-ns#"
   xmlns:svg="http://www.w3.org/2000/svg"
   xmlns="http://www.w3.org/2000/svg"
   xmlns:sodipodi="http://sodipodi.sourceforge.net/DTD/sodipodi-0.dtd"
   xmlns:inkscape="http://www.inkscape.org/namespaces/inkscape"
   id="svg2"
   xml:space="preserve"
   enable-background="new -0.781 -0.08 576 506"
   viewBox="-0.781 -0.08 197.60001 174.05"
   height="174.05"
   width="197.60001"
   y="0px"
   x="0px"
   version="1.1"
   sodipodi:docname="straight.svg"
   inkscape:version="1.0.1 (3bc2e813f5, 2020-09-07)"><sodipodi:namedview
   pagecolor="#ffffff"
   bordercolor="#666666"
   borderopacity="1"
   objecttolerance="10"
   gridtolerance="10"
   guidetolerance="10"
   inkscape:pageopacity="0"
   inkscape:pageshadow="2"
   inkscape:window-width="1916"
   inkscape:window-height="1041"
   id="namedview1007"
   showgrid="false"
   inkscape:zoom="1.7408518"
   inkscape:cx="-25.157135"
   inkscape:cy="101.89521"
   inkscape:window-x="0"
   inkscape:window-y="37"
   inkscape:window-maximized="0"
   inkscape:current-layer="g1505"
   inkscape:document-rotation="0"
   inkscape:snap-global="false" /><metadata
   id="metadata18"><rdf:RDF><cc:Work
       rdf:about=""><dc:format>image/svg+xml</dc:format><dc:type
         rdf:resource="http://purl.org/dc/dcmitype/StillImage" /><dc:title /></cc:Work></rdf:RDF></metadata>
<defs
   id="defs4">
</defs>





<g
   id="g3883"
   style="fill:#ffff00"
   transform="matrix(-0.45161367,0,0,0.45161367,138.99647,15.446347)"><g
     id="g3853"><g
       id="g1505"
       style="fill:#ffff00"
       transform="translate(-0.08185084,-0.05532435)"><g
         transform="matrix(-0.37971035,-0.65767758,-0.65767758,0.37971035,415.56424,166.85418)"
         id="g2985"
         style="fill:#ffff00"><path
           inkscape:connector-curvature="0"
           d="M 4.663749,460.12175 260.66975,16.707755 c 5.531,-9.58 15.753,-15.482 26.815,-15.482 11.063,0 21.284,5.902 26.815,15.482 L 570.30474,460.12175 c 5.531,9.58 5.531,21.383 0,30.964 -5.531,9.579 -15.753,15.481 -26.815,15.481 H 31.479749 c -11.062,0 -21.284,-5.902 -26.815,-15.481 -5.53100003,-9.581 -5.53200003,-21.384 -10e-4,-30.964 z"
           id="path6"
           style="fill:#ffffff;stroke:#000000;stroke-width:2;stroke-linecap:round;stroke-linejoin:round;stroke-miterlimit:4;stroke-dasharray:none;stroke-opacity:1" /><path
           style="fill:#545454;fill-opacity:1;stroke:none"
           inkscape:connector-curvature="0"
           d="M 559.62374,466.39275 303.52875,22.822755 c -3.31,-5.732 -9.425,-9.263 -16.044,-9.263 -6.619,0 -12.734,3.531 -16.044,9.263 L 15.344749,466.39275 c -3.31,5.732 -3.309,12.794 0,18.526 3.31,5.731 9.425,9.263 16.044,9.263 H 543.57974 c 6.619,0 12.734,-3.531 16.044,-9.263 3.31,-5.732 3.31,-12.794 0,-18.526 z"
           id="path8" /><polygon
           style="fill:#ffffff;stroke:none"
           transform="translate(0.42774897,1.137755)"
           points="63.23,455.888 287.057,68.208 510.884,455.888 "
           id="polygon10" /></g><path
         style="fill:#545454;stroke:none;stroke-width:2.70189;stroke-linecap:butt;stroke-linejoin:miter;stroke-miterlimit:4;stroke-dasharray:none;stroke-opacity:1;fill-opacity:1"
         d="m 108.16927,91.385101 h 44.07439 L 80.306153,19.447592 8.1153904,91.638361 H 53.45625 V 192.19892 h 56.23283 z"
         id="path3873-6"
         inkscape:connector-curvature="0" /></g></g></g></svg>
