<?xml version="1.0" encoding="utf-8"?>
<svg viewBox="0 0 17 17" height="17" width="17" xmlns="http://www.w3.org/2000/svg">
  <title>bicycle-share-11.svg</title>
  <rect fill="none" x="0" y="0" width="17" height="17"/>
  <path fill="rgba(255,255,255,0.25)" transform="translate(3 3)" d="M8,0.0004c-0.5523,0-1,0.4477-1,1s0.4477,1,1,1s1-0.4477,1-1 S8.5523,0.0004,8,0.0004z M6.0137,2.0004C5.8763,1.9967,5.7436,2.0497,5.6465,2.1468l-2,2c-0.1952,0.1953-0.1952,0.5118,0,0.707 L5,6.2074v2.293C4.9961,8.7765,5.2168,9.0035,5.4929,9.0074C5.7691,9.0114,5.9961,8.7907,6,8.5145 c0.0001-0.0047,0.0001-0.0094,0-0.0141v-2.5c0.0005-0.1323-0.0515-0.2594-0.1445-0.3535l-0.752-0.752l1.166-1.2031l0.832,1.1094 C7.1958,4.9263,7.3433,5.0001,7.5,5.0004h2c0.2762,0.0039,0.5032-0.2168,0.5071-0.4929c0.0039-0.2761-0.2168-0.5032-0.493-0.5071 c-0.0047-0.0001-0.0094-0.0001-0.0141,0H7.75L6.4004,2.1996C6.3086,2.0777,6.1662,2.0043,6.0137,2.0004z M2.3633,6.0043 C2.113,6.0182,1.8615,6.0708,1.6191,6.1625C0.6498,6.5293,0.0049,7.46,0.0039,8.4965s0.6411,1.9703,1.6094,2.3398 s2.0683,0.1,2.7578-0.6738c0.1831-0.2068,0.164-0.5229-0.0428-0.706C4.1219,9.2736,3.8064,9.2924,3.623,9.4984 c-0.4154,0.4663-1.0709,0.627-1.6543,0.4043C1.3853,9.68,1.003,9.1229,1.0039,8.4984S1.3886,7.319,1.9727,7.098 c0.584-0.221,1.2402-0.0592,1.6543,0.4082C3.8101,7.713,4.1262,7.7322,4.3329,7.549c0.2068-0.1831,0.226-0.4992,0.0428-0.706 C4.3755,6.8427,4.3752,6.8425,4.375,6.8422C4.0314,6.4543,3.5855,6.1936,3.1035,6.0746C2.8625,6.0151,2.6136,5.9904,2.3633,6.0043 L2.3633,6.0043z M8.6426,6.0043C8.3923,5.9904,8.1433,6.0151,7.9023,6.0746c-0.482,0.119-0.9298,0.3797-1.2734,0.7676 c-0.1834,0.2071-0.1641,0.5237,0.043,0.707s0.5237,0.1641,0.707-0.043C7.793,7.0388,8.4472,6.877,9.0312,7.098 C9.6153,7.319,9.9991,7.8739,10,8.4984S9.6186,9.68,9.0352,9.9027c-0.5834,0.2227-1.2389,0.062-1.6543-0.4043 c-0.1729-0.2153-0.4877-0.2497-0.703-0.0768s-0.2497,0.4877-0.0768,0.703c0.0106,0.0132,0.0218,0.0258,0.0337,0.0378 c0.6895,0.7739,1.7895,1.0434,2.7578,0.6738C10.3609,10.4667,11.0015,9.5329,11,8.4964c-0.001-1.0365-0.6439-1.9671-1.6133-2.334 C9.1444,6.0708,8.8928,6.0182,8.6426,6.0043L8.6426,6.0043z" style="stroke-linejoin:round;stroke-miterlimit:4px;" stroke="rgba(255,255,255,0.25)" stroke-width="2"/>
  <path fill="#444444" d="M 12.29 0.159 C 11.453 0.159 10.774 0.838 10.774 1.676 C 10.774 2.514 11.453 3.192 12.29 3.192 C 13.128 3.192 13.807 2.514 13.807 1.676 C 13.807 0.838 13.128 0.159 12.29 0.159 Z M 9.278 3.192 C 9.07 3.187 8.868 3.267 8.721 3.415 L 5.688 6.448 C 5.392 6.744 5.392 7.224 5.688 7.52 L 7.741 9.573 L 7.741 13.05 C 7.735 13.469 8.069 13.813 8.488 13.819 C 8.907 13.825 9.251 13.491 9.257 13.072 C 9.257 13.064 9.257 13.057 9.257 13.05 L 9.257 9.259 C 9.258 9.058 9.179 8.865 9.038 8.723 L 7.898 7.582 L 9.666 5.758 L 10.928 7.44 C 11.071 7.63 11.294 7.742 11.532 7.742 L 14.565 7.742 C 14.984 7.748 15.328 7.413 15.334 6.995 C 15.34 6.576 15.006 6.232 14.587 6.226 C 14.58 6.225 14.572 6.225 14.565 6.226 L 11.911 6.226 L 9.865 3.495 C 9.725 3.31 9.509 3.198 9.278 3.192 Z M 3.742 9.265 C 3.362 9.286 2.981 9.366 2.613 9.505 C 1.143 10.061 0.165 11.472 0.164 13.044 C 0.162 14.616 1.136 16.032 2.605 16.593 C 4.073 17.153 5.741 16.744 6.787 15.571 C 7.065 15.257 7.036 14.778 6.722 14.5 C 6.409 14.223 5.931 14.251 5.652 14.564 C 5.022 15.271 4.028 15.515 3.144 15.177 C 2.259 14.839 1.679 13.994 1.68 13.047 C 1.682 12.1 2.264 11.259 3.15 10.923 C 4.035 10.588 5.03 10.834 5.658 11.542 C 5.936 11.856 6.416 11.885 6.729 11.607 C 7.043 11.33 7.072 10.85 6.794 10.537 C 6.794 10.536 6.793 10.536 6.793 10.535 C 6.272 9.947 5.596 9.552 4.865 9.371 C 4.499 9.281 4.122 9.244 3.742 9.265 L 3.742 9.265 Z M 13.265 9.265 C 12.885 9.244 12.508 9.281 12.142 9.371 C 11.411 9.552 10.732 9.947 10.211 10.535 C 9.933 10.85 9.962 11.33 10.276 11.608 C 10.59 11.886 11.07 11.857 11.348 11.542 C 11.977 10.834 12.969 10.588 13.854 10.923 C 14.74 11.259 15.322 12.1 15.324 13.047 C 15.325 13.994 14.745 14.839 13.86 15.177 C 12.976 15.515 11.982 15.271 11.352 14.564 C 11.089 14.237 10.612 14.185 10.285 14.447 C 9.959 14.71 9.907 15.187 10.169 15.513 C 10.185 15.533 10.202 15.553 10.22 15.571 C 11.266 16.744 12.934 17.153 14.402 16.593 C 15.871 16.032 16.842 14.616 16.84 13.044 C 16.839 11.472 15.864 10.061 14.393 9.504 C 14.026 9.366 13.644 9.286 13.265 9.265 L 13.265 9.265 Z" style=""/>
</svg>