<?xml version="1.0" encoding="UTF-8" standalone="no"?>
<svg
   xmlns:dc="http://purl.org/dc/elements/1.1/"
   xmlns:cc="http://creativecommons.org/ns#"
   xmlns:rdf="http://www.w3.org/1999/02/22-rdf-syntax-ns#"
   xmlns:svg="http://www.w3.org/2000/svg"
   xmlns="http://www.w3.org/2000/svg"
   version="1.1"
   id="svg4209"
   width="17"
   height="17"
   viewBox="0 0 17 17">
  <metadata
     id="metadata4223">
    <rdf:RDF>
      <cc:Work
         rdf:about="">
        <dc:format>image/svg+xml</dc:format>
        <dc:type
           rdf:resource="http://purl.org/dc/dcmitype/StillImage" />
        <dc:title>bicycle-11.svg</dc:title>
      </cc:Work>
    </rdf:RDF>
  </metadata>
  <defs
     id="defs4221" />
  <title
     id="title4211">bicycle-11.svg</title>
  <rect
     id="rect4213"
     height="17"
     width="17"
     y="0"
     x="0"
     fill="none" />
  <path
     id="path4215"
     stroke-width="2"
     stroke="rgba(255,255,255,0.25)"
     style="stroke-linejoin:round;stroke-miterlimit:4px;"
     d="  M6.5,1.5c-0.6761-0.01-0.6761,1.0096,0,1H7V3.211L4.252,4.7813L3.7383,3.5h0.7148c0.6761,0.01,0.6761-1.0096,0-1H2.4258  c-0.6761-0.01-0.6761,1.0096,0,1h0.2344l0.4316,1.0781C2.9011,4.5311,2.7047,4.5001,2.5,4.5001c-1.3748,0-2.5,1.1252-2.5,2.5  s1.1252,2.5,2.5,2.5S5,8.3748,5,7.0001c0-0.4713-0.1399-0.9078-0.3691-1.2852l2.4707-1.4121L7.5039,4.711  C6.6216,5.0981,6,5.9792,6,7.0001c0,1.3748,1.1252,2.5,2.5,2.5s2.5-1.1252,2.5-2.5c0-1.2959-1.0034-2.3575-2.2695-2.4766L8,3.793V2  c0-0.2761-0.2239-0.5-0.5-0.5H6.5z M2.5,5.5C3.3344,5.5,4,6.1657,4,7S3.3344,8.5,2.5,8.5S1,7.8344,1,7S1.6656,5.5,2.5,5.5z   M8.4551,5.504h0.002c0.0299,0.003,0.06,0.003,0.0898,0C9.3587,5.5289,10,6.1818,10,7.0001c0,0.8344-0.6656,1.5-1.5,1.5  S7,7.8345,7,7.0001C7,6.1811,7.6424,5.5279,8.4551,5.504L8.4551,5.504z"
     transform="translate(3 3)"
     fill="rgba(255,255,255,0.25)" />
  <path
     id="path4217"
     d="  M6.5,1.5c-0.6761-0.01-0.6761,1.0096,0,1H7V3.211L4.252,4.7813L3.7383,3.5h0.7148c0.6761,0.01,0.6761-1.0096,0-1H2.4258  c-0.6761-0.01-0.6761,1.0096,0,1h0.2344l0.4316,1.0781C2.9011,4.5311,2.7047,4.5001,2.5,4.5001c-1.3748,0-2.5,1.1252-2.5,2.5  s1.1252,2.5,2.5,2.5S5,8.3748,5,7.0001c0-0.4713-0.1399-0.9078-0.3691-1.2852l2.4707-1.4121L7.5039,4.711  C6.6216,5.0981,6,5.9792,6,7.0001c0,1.3748,1.1252,2.5,2.5,2.5s2.5-1.1252,2.5-2.5c0-1.2959-1.0034-2.3575-2.2695-2.4766L8,3.793V2  c0-0.2761-0.2239-0.5-0.5-0.5H6.5z M2.5,5.5C3.3344,5.5,4,6.1657,4,7S3.3344,8.5,2.5,8.5S1,7.8344,1,7S1.6656,5.5,2.5,5.5z   M8.4551,5.504h0.002c0.0299,0.003,0.06,0.003,0.0898,0C9.3587,5.5289,10,6.1818,10,7.0001c0,0.8344-0.6656,1.5-1.5,1.5  S7,7.8345,7,7.0001C7,6.1811,7.6424,5.5279,8.4551,5.504L8.4551,5.504z"
     transform="translate(3 3)"
     fill="#444444" />
  <rect
     y="1.7175609"
     x="1.7175474"
     height="13.564905"
     width="13.564905"
     id="rect4225"
     style="fill:none;fill-opacity:1;stroke:#444444;stroke-width:1;stroke-miterlimit:4;stroke-dasharray:none;stroke-opacity:1;stroke-linejoin:round" />
</svg>
