<?xml version="1.0" encoding="utf-8"?>
<svg viewBox="0 0 17 17" height="17" width="17" xmlns="http://www.w3.org/2000/svg">
  <title>bicycle-11.svg</title>
  <rect fill="none" x="0" y="0" width="17" height="17"/>
  <path fill="rgba(255,255,255,0.25)" d="M 10.034 2.366 C 8.997 2.35 8.997 3.914 10.034 3.899 L 10.8 3.899 L 10.8 4.99 L 6.586 7.398 L 5.798 5.433 L 6.894 5.433 C 7.931 5.448 7.931 3.884 6.894 3.899 L 3.785 3.899 C 2.748 3.884 2.748 5.447 3.785 5.433 L 4.145 5.433 L 4.807 7.086 C 4.514 7.014 4.213 6.967 3.899 6.967 C 1.791 6.967 0.065 8.692 0.065 10.801 C 0.065 12.909 1.791 14.635 3.899 14.635 C 6.008 14.635 7.733 12.909 7.733 10.801 C 7.733 10.078 7.519 9.408 7.167 8.83 L 10.956 6.664 L 11.573 7.29 C 10.22 7.884 9.267 9.235 9.267 10.801 C 9.267 12.909 10.992 14.635 13.101 14.635 C 15.209 14.635 16.935 12.909 16.935 10.801 C 16.935 8.813 15.396 7.185 13.454 7.002 L 12.334 5.882 L 12.334 3.132 C 12.334 2.709 11.991 2.366 11.567 2.366 L 10.034 2.366 Z M 3.899 8.5 C 5.179 8.5 6.2 9.521 6.2 10.8 C 6.2 12.08 5.179 13.101 3.899 13.101 C 2.62 13.101 1.599 12.08 1.599 10.8 C 1.599 9.521 2.62 8.5 3.899 8.5 Z M 13.032 8.506 L 13.035 8.506 C 13.081 8.511 13.127 8.511 13.173 8.506 C 14.418 8.544 15.401 9.546 15.401 10.801 C 15.401 12.08 14.38 13.101 13.101 13.101 C 11.821 13.101 10.8 12.08 10.8 10.801 C 10.8 9.545 11.786 8.543 13.032 8.506 L 13.032 8.506 Z" style="stroke-linejoin: round;" stroke="rgba(255,255,255,0.25)" stroke-width="2"/>
  <path d="M 10.034 2.366 C 8.997 2.35 8.997 3.914 10.034 3.899 L 10.8 3.899 L 10.8 4.99 L 6.586 7.398 L 5.798 5.433 L 6.894 5.433 C 7.931 5.448 7.931 3.884 6.894 3.899 L 3.785 3.899 C 2.748 3.884 2.748 5.447 3.785 5.433 L 4.145 5.433 L 4.807 7.086 C 4.514 7.014 4.213 6.967 3.899 6.967 C 1.791 6.967 0.065 8.692 0.065 10.801 C 0.065 12.909 1.791 14.635 3.899 14.635 C 6.008 14.635 7.733 12.909 7.733 10.801 C 7.733 10.078 7.519 9.408 7.167 8.83 L 10.956 6.664 L 11.573 7.29 C 10.22 7.884 9.267 9.235 9.267 10.801 C 9.267 12.909 10.992 14.635 13.101 14.635 C 15.209 14.635 16.935 12.909 16.935 10.801 C 16.935 8.813 15.396 7.185 13.454 7.002 L 12.334 5.882 L 12.334 3.132 C 12.334 2.709 11.991 2.366 11.567 2.366 L 10.034 2.366 Z M 3.899 8.5 C 5.179 8.5 6.2 9.521 6.2 10.8 C 6.2 12.08 5.179 13.101 3.899 13.101 C 2.62 13.101 1.599 12.08 1.599 10.8 C 1.599 9.521 2.62 8.5 3.899 8.5 Z M 13.032 8.506 L 13.035 8.506 C 13.081 8.511 13.127 8.511 13.173 8.506 C 14.418 8.544 15.401 9.546 15.401 10.801 C 15.401 12.08 14.38 13.101 13.101 13.101 C 11.821 13.101 10.8 12.08 10.8 10.801 C 10.8 9.545 11.786 8.543 13.032 8.506 L 13.032 8.506 Z" fill="#444444" style=""/>
</svg>