<?xml version="1.0" encoding="utf-8"?>
<svg viewBox="0 0 17 17" height="17" width="17" xmlns="http://www.w3.org/2000/svg">
  <title>bicycle-share-11.svg</title>
  <rect fill="none" x="0" y="0" width="17" height="17"/>
  <path fill="rgba(255,255,255,0.25)" d="M 12.325 0.082 C 11.48 0.082 10.795 0.768 10.795 1.613 C 10.795 2.459 11.48 3.143 12.325 3.143 C 13.17 3.143 13.856 2.459 13.856 1.613 C 13.856 0.768 13.17 0.082 12.325 0.082 Z M 9.286 3.143 C 9.074 3.139 8.872 3.22 8.724 3.368 L 5.663 6.429 C 5.363 6.728 5.363 7.213 5.663 7.511 L 7.734 9.582 L 7.734 13.092 C 7.728 13.516 8.066 13.863 8.488 13.868 C 8.911 13.874 9.258 13.537 9.264 13.115 C 9.264 13.107 9.264 13.099 9.264 13.092 L 9.264 9.265 C 9.264 9.063 9.186 8.869 9.044 8.725 L 7.893 7.574 L 9.677 5.733 L 10.951 7.43 C 11.095 7.621 11.32 7.735 11.56 7.735 L 14.621 7.735 C 15.044 7.741 15.391 7.404 15.397 6.982 C 15.403 6.558 15.065 6.21 14.643 6.204 C 14.635 6.204 14.629 6.204 14.621 6.204 L 11.943 6.204 L 9.876 3.449 C 9.737 3.263 9.518 3.149 9.286 3.143 Z M 3.698 9.271 C 3.315 9.293 2.929 9.374 2.559 9.515 C 1.076 10.075 0.089 11.5 0.087 13.087 C 0.086 14.673 1.068 16.102 2.55 16.667 C 4.033 17.233 5.716 16.82 6.771 15.637 C 7.051 15.32 7.022 14.836 6.705 14.556 C 6.39 14.276 5.906 14.304 5.626 14.619 C 4.991 15.334 3.987 15.579 3.095 15.239 C 2.201 14.898 1.616 14.045 1.618 13.089 C 1.619 12.134 2.207 11.284 3.101 10.946 C 3.995 10.608 4.999 10.856 5.632 11.57 C 5.912 11.887 6.396 11.916 6.713 11.636 C 7.03 11.356 7.059 10.872 6.779 10.556 C 6.779 10.556 6.777 10.556 6.777 10.554 C 6.251 9.96 5.569 9.562 4.832 9.38 C 4.463 9.288 4.082 9.25 3.698 9.271 L 3.698 9.271 Z M 13.309 9.271 C 12.925 9.25 12.544 9.288 12.175 9.38 C 11.438 9.562 10.753 9.96 10.227 10.554 C 9.947 10.871 9.976 11.356 10.293 11.636 C 10.61 11.918 11.095 11.887 11.375 11.57 C 12.008 10.856 13.009 10.608 13.903 10.946 C 14.797 11.284 15.385 12.134 15.386 13.089 C 15.388 14.045 14.803 14.898 13.909 15.239 C 13.017 15.579 12.013 15.334 11.378 14.619 C 11.113 14.29 10.631 14.238 10.302 14.503 C 9.973 14.768 9.919 15.248 10.184 15.579 C 10.201 15.599 10.218 15.617 10.236 15.635 C 11.291 16.82 12.974 17.233 14.457 16.667 C 15.939 16.102 16.92 14.673 16.917 13.086 C 16.915 11.5 15.931 10.075 14.448 9.513 C 14.076 9.374 13.692 9.293 13.309 9.271 L 13.309 9.271 Z" style="stroke-linejoin: round;" stroke="rgba(255,255,255,0.25)" stroke-width="2"/>
  <path fill="#444444" d="M 12.325 0.082 C 11.48 0.082 10.795 0.768 10.795 1.613 C 10.795 2.459 11.48 3.143 12.325 3.143 C 13.17 3.143 13.856 2.459 13.856 1.613 C 13.856 0.768 13.17 0.082 12.325 0.082 Z M 9.286 3.143 C 9.074 3.139 8.872 3.22 8.724 3.368 L 5.663 6.429 C 5.363 6.728 5.363 7.213 5.663 7.511 L 7.734 9.582 L 7.734 13.092 C 7.728 13.516 8.066 13.863 8.488 13.868 C 8.911 13.874 9.258 13.537 9.264 13.115 C 9.264 13.107 9.264 13.099 9.264 13.092 L 9.264 9.265 C 9.264 9.063 9.186 8.869 9.044 8.725 L 7.893 7.574 L 9.677 5.733 L 10.951 7.43 C 11.095 7.621 11.32 7.735 11.56 7.735 L 14.621 7.735 C 15.044 7.741 15.391 7.404 15.397 6.982 C 15.403 6.558 15.065 6.21 14.643 6.204 C 14.635 6.204 14.629 6.204 14.621 6.204 L 11.943 6.204 L 9.876 3.449 C 9.737 3.263 9.518 3.149 9.286 3.143 Z M 3.698 9.271 C 3.315 9.293 2.929 9.374 2.559 9.515 C 1.076 10.075 0.089 11.5 0.087 13.087 C 0.086 14.673 1.068 16.102 2.55 16.667 C 4.033 17.233 5.716 16.82 6.771 15.637 C 7.051 15.32 7.022 14.836 6.705 14.556 C 6.39 14.276 5.906 14.304 5.626 14.619 C 4.991 15.334 3.987 15.579 3.095 15.239 C 2.201 14.898 1.616 14.045 1.618 13.089 C 1.619 12.134 2.207 11.284 3.101 10.946 C 3.995 10.608 4.999 10.856 5.632 11.57 C 5.912 11.887 6.396 11.916 6.713 11.636 C 7.03 11.356 7.059 10.872 6.779 10.556 C 6.779 10.556 6.777 10.556 6.777 10.554 C 6.251 9.96 5.569 9.562 4.832 9.38 C 4.463 9.288 4.082 9.25 3.698 9.271 L 3.698 9.271 Z M 13.309 9.271 C 12.925 9.25 12.544 9.288 12.175 9.38 C 11.438 9.562 10.753 9.96 10.227 10.554 C 9.947 10.871 9.976 11.356 10.293 11.636 C 10.61 11.918 11.095 11.887 11.375 11.57 C 12.008 10.856 13.009 10.608 13.903 10.946 C 14.797 11.284 15.385 12.134 15.386 13.089 C 15.388 14.045 14.803 14.898 13.909 15.239 C 13.017 15.579 12.013 15.334 11.378 14.619 C 11.113 14.29 10.631 14.238 10.302 14.503 C 9.973 14.768 9.919 15.248 10.184 15.579 C 10.201 15.599 10.218 15.617 10.236 15.635 C 11.291 16.82 12.974 17.233 14.457 16.667 C 15.939 16.102 16.92 14.673 16.917 13.086 C 16.915 11.5 15.931 10.075 14.448 9.513 C 14.076 9.374 13.692 9.293 13.309 9.271 L 13.309 9.271 Z" style=""/>
</svg>