<?xml version="1.0" encoding="utf-8"?>
<svg viewBox="0 0 17 17" height="17" width="17" xmlns="http://www.w3.org/2000/svg">
  <title>bicycle-11.svg</title>
  <rect fill="none" x="0" y="0" width="17" height="17"/>
  <path fill="rgba(255,255,255,0.25)" transform="translate(3 3)" d=" M6.5,1.5c-0.6761-0.01-0.6761,1.0096,0,1H7V3.211L4.252,4.7813L3.7383,3.5h0.7148c0.6761,0.01,0.6761-1.0096,0-1H2.4258 c-0.6761-0.01-0.6761,1.0096,0,1h0.2344l0.4316,1.0781C2.9011,4.5311,2.7047,4.5001,2.5,4.5001c-1.3748,0-2.5,1.1252-2.5,2.5 s1.1252,2.5,2.5,2.5S5,8.3748,5,7.0001c0-0.4713-0.1399-0.9078-0.3691-1.2852l2.4707-1.4121L7.5039,4.711 C6.6216,5.0981,6,5.9792,6,7.0001c0,1.3748,1.1252,2.5,2.5,2.5s2.5-1.1252,2.5-2.5c0-1.2959-1.0034-2.3575-2.2695-2.4766L8,3.793V2 c0-0.2761-0.2239-0.5-0.5-0.5H6.5z M2.5,5.5C3.3344,5.5,4,6.1657,4,7S3.3344,8.5,2.5,8.5S1,7.8344,1,7S1.6656,5.5,2.5,5.5z M8.4551,5.504h0.002c0.0299,0.003,0.06,0.003,0.0898,0C9.3587,5.5289,10,6.1818,10,7.0001c0,0.8344-0.6656,1.5-1.5,1.5 S7,7.8345,7,7.0001C7,6.1811,7.6424,5.5279,8.4551,5.504L8.4551,5.504z" style="stroke-linejoin:round;stroke-miterlimit:4px;" stroke="rgba(255,255,255,0.25)" stroke-width="2"/>
  <path d="M 10.027 2.39 C 8.995 2.375 8.995 3.932 10.027 3.918 L 10.791 3.918 L 10.791 5.004 L 6.594 7.402 L 5.809 5.445 L 6.901 5.445 C 7.934 5.46 7.934 3.903 6.901 3.918 L 3.804 3.918 C 2.771 3.902 2.771 5.46 3.804 5.445 L 4.162 5.445 L 4.822 7.092 C 4.53 7.02 4.23 6.973 3.918 6.973 C 1.818 6.973 0.099 8.691 0.099 10.791 C 0.099 12.891 1.818 14.61 3.918 14.61 C 6.018 14.61 7.736 12.891 7.736 10.791 C 7.736 10.071 7.523 9.405 7.172 8.828 L 10.946 6.671 L 11.561 7.295 C 10.213 7.886 9.264 9.232 9.264 10.791 C 9.264 12.891 10.982 14.61 13.082 14.61 C 15.182 14.61 16.901 12.891 16.901 10.791 C 16.901 8.812 15.368 7.19 13.435 7.008 L 12.319 5.893 L 12.319 3.154 C 12.319 2.732 11.977 2.39 11.555 2.39 L 10.027 2.39 Z M 3.918 8.5 C 5.192 8.5 6.209 9.517 6.209 10.791 C 6.209 12.066 5.192 13.082 3.918 13.082 C 2.643 13.082 1.626 12.066 1.626 10.791 C 1.626 9.517 2.643 8.5 3.918 8.5 Z M 13.014 8.506 L 13.017 8.506 C 13.063 8.511 13.109 8.511 13.154 8.506 C 14.394 8.544 15.374 9.541 15.374 10.791 C 15.374 12.066 14.357 13.083 13.082 13.083 C 11.808 13.083 10.791 12.066 10.791 10.791 C 10.791 9.54 11.772 8.543 13.014 8.506 L 13.014 8.506 Z" style="fill: rgb(0, 33, 63);"/>
</svg>