<?xml version="1.0" encoding="utf-8"?>
<svg id="svg874" version="1.1" width="17" height="17" viewBox="0 0 17 17" xmlns="http://www.w3.org/2000/svg">
  <title id="title866">bicycle-share-11.svg</title>
  <rect id="rect868" height="17" width="17" y="0" x="0" fill="none"/>
  <path style="fill: rgb(68, 68, 68); fill-opacity: 1; stroke-width: 0.0316041;" d="M 4.213 8.408 L 4.213 6.088 C 4.455 5.162 5.485 4.488 6.699 4.459 L 8.444 4.459 C 8.444 4.122 8.737 3.849 9.099 3.849 L 9.099 2.22 L 7.354 2.22 C 6.951 2.22 6.699 1.813 6.901 1.487 C 6.994 1.336 7.167 1.243 7.354 1.243 L 11.935 1.243 C 12.338 1.243 12.589 1.651 12.387 1.976 C 12.294 2.127 12.121 2.22 11.935 2.22 L 10.19 2.22 L 10.19 3.849 C 10.551 3.849 10.844 4.122 10.844 4.459 L 13.243 4.459 L 13.243 3.034 C 13.243 2.877 13.38 2.75 13.549 2.75 L 14.203 2.75 L 14.203 7.635 L 13.549 7.635 C 13.38 7.635 13.243 7.507 13.243 7.35 L 13.243 5.925 L 10.844 5.925 C 10.844 6.262 10.551 6.535 10.19 6.535 L 9.099 6.535 C 8.737 6.535 8.444 6.262 8.444 5.925 L 6.699 5.925 C 6.266 5.925 5.914 6.253 5.914 6.658 L 5.914 8.408 Z M 2.25 9.752 L 2.991 15.817 L 6.961 15.817 L 7.703 9.752 Z M 2.86 10.281 L 7.092 10.281 L 6.961 11.502 L 3.035 11.502 Z" id="path976"/>
</svg>