<?xml version="1.0" encoding="UTF-8" standalone="no"?>
<svg
   xmlns:dc="http://purl.org/dc/elements/1.1/"
   xmlns:cc="http://creativecommons.org/ns#"
   xmlns:rdf="http://www.w3.org/1999/02/22-rdf-syntax-ns#"
   xmlns:svg="http://www.w3.org/2000/svg"
   xmlns="http://www.w3.org/2000/svg"
   id="svg4664"
   version="1.1"
   width="17"
   height="17"
   viewBox="0 0 17 17">
  <metadata
     id="metadata4670">
    <rdf:RDF>
      <cc:Work
         rdf:about="">
        <dc:format>image/svg+xml</dc:format>
        <dc:type
           rdf:resource="http://purl.org/dc/dcmitype/StillImage" />
        <dc:title>post-11.svg</dc:title>
      </cc:Work>
    </rdf:RDF>
  </metadata>
  <defs
     id="defs4668" />
  <title
     id="title4656">post-11.svg</title>
  <rect
     id="rect4658"
     height="17"
     width="17"
     y="0"
     x="0"
     fill="none" />
  <g
     id="g4834">
    <path
       d="m 12.755038,5.3051738 v 0 l -0.08,-0.08 -4.1699992,-2 -4.1900004,2 v 0 h -0.06 v 0 c -0.1796,0.0981 -0.2792,0.2975 -0.25,0.5 0,0.2760997 0.2239,0.4999997 0.5,0.4999997 h 7.9999996 c 0.2761,0 0.5,-0.2239 0.5,-0.4999997 -0.0026,-0.1745 -0.0978,-0.3345 -0.25,-0.42 z"
       id="path4662"
       style="fill:#444444" />
    <path
       style="fill:#444444;stroke-width:0.91565675"
       id="path4689"
       d="m 12.087368,5.6580998 v 0 l -0.08,0.067074 c -0.02014,2.3977092 0.03513,4.6255562 0,7.0092522 v 0 0.0503 0 c 0.0981,0.150582 0.2975,0.234089 0.5,0.209607 0.2761,0 0.5,-0.187724 0.5,-0.419214 V 5.8677066 c 0,-0.2314897 -0.2239,-0.4192136 -0.5,-0.4192136 -0.1745,0.00218 -0.3345,0.081998 -0.42,0.2096068 z" />
    <path
       style="fill:#444444;stroke-width:0.91565675"
       id="path4706"
       d="m 4.0850384,5.6580998 v 0 l -0.08,0.067074 c -0.02014,2.3977092 0.035127,4.6255562 0,7.0092522 v 0 0.0503 0 c 0.0981,0.150582 0.2975,0.234089 0.5,0.209607 0.2761,0 0.5,-0.187724 0.5,-0.419214 V 5.8677066 c 0,-0.2314897 -0.2239,-0.4192136 -0.5,-0.4192136 -0.1745,0.00218 -0.3345,0.081998 -0.42,0.2096068 z" />
  </g>
</svg>
