<?xml version="1.0" encoding="utf-8"?>
<svg viewBox="0 0 17 17" height="17" width="17" xmlns="http://www.w3.org/2000/svg">
  <title>toilet-11.svg</title>
  <rect fill="none" x="0" y="0" width="17" height="17"/>
  <path fill="rgba(255,255,255,0.25)" transform="translate(3 3)" d="M3.33,2.19c-0.6075,0-1.1-0.4925-1.1-1.1s0.4925-1.1,1.1-1.1s1.1,0.4925,1.1,1.1v0C4.43,1.6975,3.9375,2.19,3.33,2.19z M10.27,1.09c0-0.6075-0.4925-1.1-1.1-1.1c-0.6075,0-1.1,0.4925-1.1,1.1s0.4925,1.1,1.1,1.1c0.6036,0,1.0945-0.4864,1.1-1.09V1.09z M6.51,4.93L6.51,4.93L4.7,3.12l0,0C4.6306,3.0442,4.5328,3.0008,4.43,3H2.22C2.1271,3.0008,2.0378,3.0365,1.97,3.1H2L0.14,4.93 c-0.1709,0.1218-0.2107,0.3591-0.0889,0.53s0.3591,0.2107,0.53,0.0889C0.6155,5.5244,0.6455,5.4944,0.67,5.46l1.58-1.58L0.77,8h1.46 v2.51c-0.0055,0.0365-0.0055,0.0735,0,0.11c0.0339,0.2071,0.2293,0.3475,0.4364,0.3136C2.8274,10.9072,2.9536,10.781,2.98,10.62H3V8 h0.69v2.63l0,0c0.0339,0.2071,0.2293,0.3475,0.4364,0.3136C4.2874,10.9172,4.4136,10.791,4.44,10.63 c0.0055-0.0365,0.0055-0.0735,0-0.11V8h1.44L4.41,3.88L6,5.46l0,0c0.0718,0.0783,0.1738,0.1221,0.28,0.12 c0.2099,0,0.38-0.1701,0.38-0.38l0,0C6.6518,5.0924,6.597,4.9938,6.51,4.93z M8.62,7v3.63 c-0.0335,0.2016,0.1028,0.3921,0.3044,0.4256c0.2016,0.0335,0.3921-0.1028,0.4256-0.3044c0.0067-0.0401,0.0067-0.0811,0-0.1212V7H11 V3.37C11,3.1657,10.8343,3,10.63,3H7.71C7.5057,3,7.34,3.1657,7.34,3.37V7H8.62z" style="stroke-linejoin:round;stroke-miterlimit:4px;" stroke="rgba(255,255,255,0.25)" stroke-width="2"/>
  <path fill="#444444" d="M 5.62 4.095 C 4.814 4.095 4.16 3.442 4.16 2.634 C 4.16 1.827 4.814 1.173 5.62 1.173 C 6.428 1.173 7.082 1.827 7.082 2.634 L 7.082 2.634 C 7.082 3.442 6.428 4.095 5.62 4.095 Z M 14.839 2.634 C 14.839 1.827 14.184 1.173 13.378 1.173 C 12.571 1.173 11.917 1.827 11.917 2.634 C 11.917 3.442 12.571 4.095 13.378 4.095 C 14.18 4.095 14.832 3.449 14.839 2.648 L 14.839 2.634 Z M 9.844 7.735 L 9.844 7.735 L 7.441 5.33 L 7.441 5.33 C 7.348 5.23 7.218 5.172 7.082 5.171 L 4.147 5.171 C 4.023 5.172 3.905 5.22 3.815 5.304 L 3.855 5.304 L 1.384 7.735 C 1.157 7.896 1.104 8.212 1.266 8.438 C 1.428 8.665 1.742 8.719 1.97 8.556 C 2.015 8.524 2.055 8.484 2.088 8.438 L 4.187 6.34 L 2.22 11.812 L 4.16 11.812 L 4.16 15.146 C 4.152 15.195 4.152 15.244 4.16 15.293 C 4.205 15.567 4.464 15.754 4.74 15.709 C 4.954 15.674 5.121 15.506 5.156 15.293 L 5.182 15.293 L 5.182 11.812 L 6.099 11.812 L 6.099 15.305 L 6.099 15.305 C 6.144 15.58 6.403 15.767 6.678 15.722 C 6.892 15.687 7.06 15.519 7.095 15.305 C 7.102 15.257 7.102 15.208 7.095 15.159 L 7.095 11.812 L 9.008 11.812 L 7.055 6.34 L 9.168 8.438 L 9.168 8.438 C 9.262 8.543 9.399 8.601 9.539 8.597 C 9.818 8.597 10.044 8.372 10.044 8.094 L 10.044 8.094 C 10.033 7.951 9.96 7.819 9.844 7.735 Z M 12.647 10.484 L 12.647 15.305 C 12.602 15.574 12.784 15.827 13.052 15.871 C 13.319 15.915 13.572 15.734 13.617 15.467 C 13.626 15.413 13.626 15.359 13.617 15.305 L 13.617 10.484 L 15.809 10.484 L 15.809 5.662 C 15.809 5.391 15.589 5.171 15.317 5.171 L 11.439 5.171 C 11.168 5.171 10.947 5.391 10.947 5.662 L 10.947 10.484 L 12.647 10.484 Z" style=""/>
</svg>