<?xml version="1.0" encoding="utf-8"?>
<svg viewBox="0 0 17 17" height="17" width="17" xmlns="http://www.w3.org/2000/svg">
  <title>toilet-11.svg</title>
  <rect fill="none" x="0" y="0" width="17" height="17"/>
  <path fill="rgba(255,255,255,0.25)" d="M 5.503 3.913 C 4.663 3.913 3.981 3.232 3.981 2.391 C 3.981 1.551 4.663 0.87 5.503 0.87 C 6.343 0.87 7.024 1.551 7.024 2.391 L 7.024 2.391 C 7.024 3.232 6.343 3.913 5.503 3.913 Z M 15.1 2.391 C 15.1 1.551 14.419 0.87 13.579 0.87 C 12.739 0.87 12.058 1.551 12.058 2.391 C 12.058 3.232 12.739 3.913 13.579 3.913 C 14.414 3.913 15.093 3.24 15.1 2.405 L 15.1 2.391 Z M 9.901 7.702 L 9.901 7.702 L 7.397 5.199 L 7.397 5.199 C 7.301 5.094 7.166 5.034 7.024 5.033 L 3.968 5.033 C 3.839 5.034 3.716 5.083 3.622 5.171 L 3.663 5.171 L 1.091 7.702 C 0.855 7.87 0.8 8.199 0.968 8.435 C 1.137 8.671 1.465 8.726 1.701 8.558 C 1.749 8.524 1.79 8.483 1.824 8.435 L 4.009 6.25 L 1.962 11.948 L 3.981 11.948 L 3.981 15.419 C 3.974 15.469 3.974 15.521 3.981 15.571 C 4.028 15.857 4.299 16.052 4.585 16.005 C 4.808 15.968 4.982 15.794 5.019 15.571 L 5.046 15.571 L 5.046 11.948 L 6.001 11.948 L 6.001 15.585 L 6.001 15.585 C 6.047 15.871 6.318 16.065 6.604 16.019 C 6.827 15.982 7.001 15.808 7.038 15.585 C 7.045 15.534 7.045 15.483 7.038 15.433 L 7.038 11.948 L 9.029 11.948 L 6.996 6.25 L 9.195 8.435 L 9.195 8.435 C 9.295 8.543 9.436 8.604 9.582 8.601 C 9.873 8.601 10.108 8.366 10.108 8.075 L 10.108 8.075 C 10.097 7.927 10.021 7.79 9.901 7.702 Z M 12.819 10.565 L 12.819 15.585 C 12.772 15.864 12.961 16.127 13.24 16.173 C 13.518 16.22 13.782 16.031 13.828 15.752 C 13.837 15.697 13.837 15.64 13.828 15.585 L 13.828 10.565 L 16.11 10.565 L 16.11 5.545 C 16.11 5.262 15.881 5.033 15.598 5.033 L 11.56 5.033 C 11.278 5.033 11.048 5.262 11.048 5.545 L 11.048 10.565 L 12.819 10.565 Z" style="stroke-linejoin: round;" stroke="rgba(255,255,255,0.25)" stroke-width="2"/>
  <path fill="#444444" d="M 5.503 3.913 C 4.663 3.913 3.981 3.232 3.981 2.391 C 3.981 1.551 4.663 0.87 5.503 0.87 C 6.343 0.87 7.024 1.551 7.024 2.391 L 7.024 2.391 C 7.024 3.232 6.343 3.913 5.503 3.913 Z M 15.1 2.391 C 15.1 1.551 14.419 0.87 13.579 0.87 C 12.739 0.87 12.058 1.551 12.058 2.391 C 12.058 3.232 12.739 3.913 13.579 3.913 C 14.414 3.913 15.093 3.24 15.1 2.405 L 15.1 2.391 Z M 9.901 7.702 L 9.901 7.702 L 7.397 5.199 L 7.397 5.199 C 7.301 5.094 7.166 5.034 7.024 5.033 L 3.968 5.033 C 3.839 5.034 3.716 5.083 3.622 5.171 L 3.663 5.171 L 1.091 7.702 C 0.855 7.87 0.8 8.199 0.968 8.435 C 1.137 8.671 1.465 8.726 1.701 8.558 C 1.749 8.524 1.79 8.483 1.824 8.435 L 4.009 6.25 L 1.962 11.948 L 3.981 11.948 L 3.981 15.419 C 3.974 15.469 3.974 15.521 3.981 15.571 C 4.028 15.857 4.299 16.052 4.585 16.005 C 4.808 15.968 4.982 15.794 5.019 15.571 L 5.046 15.571 L 5.046 11.948 L 6.001 11.948 L 6.001 15.585 L 6.001 15.585 C 6.047 15.871 6.318 16.065 6.604 16.019 C 6.827 15.982 7.001 15.808 7.038 15.585 C 7.045 15.534 7.045 15.483 7.038 15.433 L 7.038 11.948 L 9.029 11.948 L 6.996 6.25 L 9.195 8.435 L 9.195 8.435 C 9.295 8.543 9.436 8.604 9.582 8.601 C 9.873 8.601 10.108 8.366 10.108 8.075 L 10.108 8.075 C 10.097 7.927 10.021 7.79 9.901 7.702 Z M 12.819 10.565 L 12.819 15.585 C 12.772 15.864 12.961 16.127 13.24 16.173 C 13.518 16.22 13.782 16.031 13.828 15.752 C 13.837 15.697 13.837 15.64 13.828 15.585 L 13.828 10.565 L 16.11 10.565 L 16.11 5.545 C 16.11 5.262 15.881 5.033 15.598 5.033 L 11.56 5.033 C 11.278 5.033 11.048 5.262 11.048 5.545 L 11.048 10.565 L 12.819 10.565 Z" style=""/>
</svg>