<?xml version="1.0" encoding="UTF-8" standalone="no"?>
<svg
   xmlns:dc="http://purl.org/dc/elements/1.1/"
   xmlns:cc="http://creativecommons.org/ns#"
   xmlns:rdf="http://www.w3.org/1999/02/22-rdf-syntax-ns#"
   xmlns:svg="http://www.w3.org/2000/svg"
   xmlns="http://www.w3.org/2000/svg"
   xmlns:sodipodi="http://sodipodi.sourceforge.net/DTD/sodipodi-0.dtd"
   xmlns:inkscape="http://www.inkscape.org/namespaces/inkscape"
   id="svg4"
   viewBox="0 0 32 32"
   height="32"
   width="32"
   version="1.1"
   sodipodi:docname="grave_yard_generic_many.svg"
   inkscape:version="0.92.5 (2060ec1f9f, 2020-04-08)">
  <metadata
     id="metadata9">
    <rdf:RDF>
      <cc:Work
         rdf:about="">
        <dc:format>image/svg+xml</dc:format>
        <dc:type
           rdf:resource="http://purl.org/dc/dcmitype/StillImage" />
        <dc:title></dc:title>
      </cc:Work>
    </rdf:RDF>
  </metadata>
  <defs
     id="defs7" />
  <sodipodi:namedview
     pagecolor="#ffffff"
     bordercolor="#666666"
     borderopacity="1"
     objecttolerance="10"
     gridtolerance="10"
     guidetolerance="10"
     inkscape:pageopacity="0"
     inkscape:pageshadow="2"
     inkscape:window-width="1366"
     inkscape:window-height="708"
     id="namedview5"
     showgrid="false"
     inkscape:zoom="15.787109"
     inkscape:cx="15.714957"
     inkscape:cy="16"
     inkscape:window-x="0"
     inkscape:window-y="0"
     inkscape:window-maximized="1"
     inkscape:current-layer="svg4" />
  <rect
     style="visibility:hidden;fill:none;stroke:none"
     id="canvas"
     y="0"
     x="0"
     height="32"
     width="32" />
  <path
     style="fill:#000000;fill-opacity:1;stroke:none;stroke-width:0.696311"
     d="m 2,11 v 4 H 0 v 1 H 8 V 15 H 6 V 11 C 6,8 4,8 4,8 4,8 2,8 2,11 Z"
     id="generic"
     inkscape:connector-curvature="0" />
  <path
     id="path847"
     d="m 18,11 v 4 h -2 v 1 h 8 v -1 h -2 v -4 c 0,-3 -2,-3 -2,-3 0,0 -2,0 -2,3 z"
     style="fill:#000000;fill-opacity:1;stroke:none;stroke-width:0.696311"
     inkscape:connector-curvature="0" />
  <path
     inkscape:connector-curvature="0"
     style="fill:#000000;fill-opacity:1;stroke:none;stroke-width:0.696311"
     d="m 2,27 v 4 H 0 v 1 H 8 V 31 H 6 V 27 C 6,24 4,24 4,24 4,24 2,24 2,27 Z"
     id="generic-3" />
  <path
     id="path847-6"
     d="m 18,27 v 4 h -2 v 1 h 8 v -1 h -2 v -4 c 0,-3 -2,-3 -2,-3 0,0 -2,0 -2,3 z"
     style="fill:#000000;fill-opacity:1;stroke:none;stroke-width:0.696311"
     inkscape:connector-curvature="0" />
</svg>
